<mxfile host="app.diagrams.net" agent="Mozilla/5.0 (Macintosh; Intel Mac OS X 10_15_7) AppleWebKit/537.36 (KHTML, like Gecko) Chrome/131.0.0.0 Safari/537.36" version="25.0.3" pages="2">
  <diagram name="mechanics" id="DuW65daEWxQ4h89i76Ge">
    <mxGraphModel dx="1051" dy="642" grid="1" gridSize="10" guides="1" tooltips="1" connect="1" arrows="1" fold="1" page="1" pageScale="1" pageWidth="827" pageHeight="1169" math="0" shadow="0">
      <root>
        <mxCell id="jLhTPvRtANNzipeCa4i7-0" />
        <mxCell id="jLhTPvRtANNzipeCa4i7-1" parent="jLhTPvRtANNzipeCa4i7-0" />
        <mxCell id="jLhTPvRtANNzipeCa4i7-2" value="" style="rounded=0;whiteSpace=wrap;html=1;" vertex="1" parent="jLhTPvRtANNzipeCa4i7-1">
          <mxGeometry x="330" y="160" width="230" height="60" as="geometry" />
        </mxCell>
        <mxCell id="jLhTPvRtANNzipeCa4i7-3" value="MicroBOY MIDI" style="text;html=1;align=left;verticalAlign=middle;whiteSpace=wrap;rounded=0;" vertex="1" parent="jLhTPvRtANNzipeCa4i7-1">
          <mxGeometry x="340" y="160" width="210" height="20" as="geometry" />
        </mxCell>
        <mxCell id="jLhTPvRtANNzipeCa4i7-4" value="v0.0.1" style="text;html=1;align=left;verticalAlign=middle;whiteSpace=wrap;rounded=0;" vertex="1" parent="jLhTPvRtANNzipeCa4i7-1">
          <mxGeometry x="340" y="180" width="210" height="20" as="geometry" />
        </mxCell>
        <mxCell id="jLhTPvRtANNzipeCa4i7-5" value="rusaaKKMODS 2024" style="text;html=1;align=left;verticalAlign=middle;whiteSpace=wrap;rounded=0;" vertex="1" parent="jLhTPvRtANNzipeCa4i7-1">
          <mxGeometry x="340" y="200" width="210" height="20" as="geometry" />
        </mxCell>
        <mxCell id="jLhTPvRtANNzipeCa4i7-6" value="display_splash" style="text;html=1;align=left;verticalAlign=middle;whiteSpace=wrap;rounded=0;fontStyle=1" vertex="1" parent="jLhTPvRtANNzipeCa4i7-1">
          <mxGeometry x="330" y="120" width="230" height="40" as="geometry" />
        </mxCell>
        <mxCell id="jLhTPvRtANNzipeCa4i7-7" value="" style="rounded=0;whiteSpace=wrap;html=1;" vertex="1" parent="jLhTPvRtANNzipeCa4i7-1">
          <mxGeometry x="330" y="320" width="230" height="60" as="geometry" />
        </mxCell>
        <mxCell id="jLhTPvRtANNzipeCa4i7-8" value="MicroBOY MIDI" style="text;html=1;align=left;verticalAlign=middle;whiteSpace=wrap;rounded=0;" vertex="1" parent="jLhTPvRtANNzipeCa4i7-1">
          <mxGeometry x="340" y="320" width="210" height="20" as="geometry" />
        </mxCell>
        <mxCell id="jLhTPvRtANNzipeCa4i7-9" value="&amp;lt;&amp;lt; disconnected &amp;gt;&amp;gt;" style="text;html=1;align=left;verticalAlign=middle;whiteSpace=wrap;rounded=0;" vertex="1" parent="jLhTPvRtANNzipeCa4i7-1">
          <mxGeometry x="340" y="340" width="210" height="20" as="geometry" />
        </mxCell>
        <mxCell id="jLhTPvRtANNzipeCa4i7-10" value="display_disconnected" style="text;html=1;align=left;verticalAlign=middle;whiteSpace=wrap;rounded=0;fontStyle=1" vertex="1" parent="jLhTPvRtANNzipeCa4i7-1">
          <mxGeometry x="330" y="280" width="230" height="40" as="geometry" />
        </mxCell>
        <mxCell id="jLhTPvRtANNzipeCa4i7-11" value="" style="rounded=0;whiteSpace=wrap;html=1;" vertex="1" parent="jLhTPvRtANNzipeCa4i7-1">
          <mxGeometry x="330" y="480" width="230" height="60" as="geometry" />
        </mxCell>
        <mxCell id="jLhTPvRtANNzipeCa4i7-12" value="PU1:[01] PU2:[--]" style="text;html=1;align=left;verticalAlign=middle;whiteSpace=wrap;rounded=0;" vertex="1" parent="jLhTPvRtANNzipeCa4i7-1">
          <mxGeometry x="340" y="480" width="210" height="20" as="geometry" />
        </mxCell>
        <mxCell id="jLhTPvRtANNzipeCa4i7-13" value="WAV:[10] NOI:[16]" style="text;html=1;align=left;verticalAlign=middle;whiteSpace=wrap;rounded=0;" vertex="1" parent="jLhTPvRtANNzipeCa4i7-1">
          <mxGeometry x="340" y="500" width="210" height="20" as="geometry" />
        </mxCell>
        <mxCell id="jLhTPvRtANNzipeCa4i7-14" value="display_main" style="text;html=1;align=left;verticalAlign=middle;whiteSpace=wrap;rounded=0;fontStyle=1" vertex="1" parent="jLhTPvRtANNzipeCa4i7-1">
          <mxGeometry x="330" y="440" width="230" height="40" as="geometry" />
        </mxCell>
        <mxCell id="jLhTPvRtANNzipeCa4i7-15" value="Velocity: 100" style="text;html=1;align=left;verticalAlign=middle;whiteSpace=wrap;rounded=0;" vertex="1" parent="jLhTPvRtANNzipeCa4i7-1">
          <mxGeometry x="340" y="520" width="210" height="20" as="geometry" />
        </mxCell>
        <mxCell id="jLhTPvRtANNzipeCa4i7-16" value="" style="rounded=0;whiteSpace=wrap;html=1;" vertex="1" parent="jLhTPvRtANNzipeCa4i7-1">
          <mxGeometry x="330" y="640" width="230" height="60" as="geometry" />
        </mxCell>
        <mxCell id="yw6o01l--fo5ON37wxSx-3" value="" style="edgeStyle=orthogonalEdgeStyle;rounded=0;orthogonalLoop=1;jettySize=auto;html=1;" edge="1" parent="jLhTPvRtANNzipeCa4i7-1">
          <mxGeometry relative="1" as="geometry">
            <mxPoint x="490" y="615" as="sourcePoint" />
            <mxPoint x="490" y="555" as="targetPoint" />
          </mxGeometry>
        </mxCell>
        <mxCell id="jLhTPvRtANNzipeCa4i7-17" value="display_menu" style="text;html=1;align=left;verticalAlign=middle;whiteSpace=wrap;rounded=0;fontStyle=1" vertex="1" parent="jLhTPvRtANNzipeCa4i7-1">
          <mxGeometry x="330" y="600" width="230" height="40" as="geometry" />
        </mxCell>
        <mxCell id="jLhTPvRtANNzipeCa4i7-18" value="&amp;lt;&amp;nbsp; Channels&amp;nbsp; &amp;gt;" style="text;html=1;align=center;verticalAlign=middle;whiteSpace=wrap;rounded=0;fontSize=21;" vertex="1" parent="jLhTPvRtANNzipeCa4i7-1">
          <mxGeometry x="340" y="640" width="210" height="60" as="geometry" />
        </mxCell>
        <mxCell id="jLhTPvRtANNzipeCa4i7-19" value="" style="rounded=0;whiteSpace=wrap;html=1;" vertex="1" parent="jLhTPvRtANNzipeCa4i7-1">
          <mxGeometry x="570" y="640" width="230" height="60" as="geometry" />
        </mxCell>
        <mxCell id="jLhTPvRtANNzipeCa4i7-20" value="&amp;lt;&amp;nbsp; Config&amp;nbsp; &amp;gt;" style="text;html=1;align=center;verticalAlign=middle;whiteSpace=wrap;rounded=0;fontSize=21;" vertex="1" parent="jLhTPvRtANNzipeCa4i7-1">
          <mxGeometry x="580" y="640" width="210" height="60" as="geometry" />
        </mxCell>
        <mxCell id="jLhTPvRtANNzipeCa4i7-21" value="link connected&lt;div&gt;or&lt;br&gt;&lt;div&gt;gameboy on&lt;/div&gt;&lt;/div&gt;" style="shape=step;perimeter=stepPerimeter;whiteSpace=wrap;html=1;fixedSize=1;" vertex="1" parent="jLhTPvRtANNzipeCa4i7-1">
          <mxGeometry x="210" y="390" width="220" height="50" as="geometry" />
        </mxCell>
        <mxCell id="jLhTPvRtANNzipeCa4i7-22" value="click rotary" style="shape=step;perimeter=stepPerimeter;whiteSpace=wrap;html=1;fixedSize=1;" vertex="1" parent="jLhTPvRtANNzipeCa4i7-1">
          <mxGeometry x="210" y="560" width="220" height="40" as="geometry" />
        </mxCell>
        <mxCell id="jLhTPvRtANNzipeCa4i7-23" value="" style="rounded=0;whiteSpace=wrap;html=1;" vertex="1" parent="jLhTPvRtANNzipeCa4i7-1">
          <mxGeometry x="90" y="640" width="230" height="60" as="geometry" />
        </mxCell>
        <mxCell id="jLhTPvRtANNzipeCa4i7-24" value="&amp;lt;&amp;nbsp; Reader&amp;nbsp; &amp;gt;" style="text;html=1;align=center;verticalAlign=middle;whiteSpace=wrap;rounded=0;fontSize=21;" vertex="1" parent="jLhTPvRtANNzipeCa4i7-1">
          <mxGeometry x="100" y="640" width="210" height="60" as="geometry" />
        </mxCell>
        <mxCell id="jLhTPvRtANNzipeCa4i7-25" value="rotate rotary should rotate highlight:&lt;div&gt;PU1, PU2, WAV, NOI, VEL, ..rotate&lt;/div&gt;" style="shape=step;perimeter=stepPerimeter;whiteSpace=wrap;html=1;fixedSize=1;flipH=1;" vertex="1" parent="jLhTPvRtANNzipeCa4i7-1">
          <mxGeometry x="610" y="480" width="270" height="60" as="geometry" />
        </mxCell>
        <mxCell id="jLhTPvRtANNzipeCa4i7-26" value="rotate rotary will navigate menu" style="shape=step;perimeter=stepPerimeter;whiteSpace=wrap;html=1;fixedSize=1;flipH=1;" vertex="1" parent="jLhTPvRtANNzipeCa4i7-1">
          <mxGeometry x="830" y="640" width="270" height="60" as="geometry" />
        </mxCell>
        <mxCell id="jLhTPvRtANNzipeCa4i7-27" value="" style="rounded=0;whiteSpace=wrap;html=1;" vertex="1" parent="jLhTPvRtANNzipeCa4i7-1">
          <mxGeometry x="330" y="800" width="230" height="60" as="geometry" />
        </mxCell>
        <mxCell id="jLhTPvRtANNzipeCa4i7-28" value="click shift + click rotary back to main display" style="shape=step;perimeter=stepPerimeter;whiteSpace=wrap;html=1;fixedSize=1;flipH=1;" vertex="1" parent="jLhTPvRtANNzipeCa4i7-1">
          <mxGeometry x="504" y="555" width="270" height="60" as="geometry" />
        </mxCell>
        <mxCell id="jLhTPvRtANNzipeCa4i7-29" value="click Shift + Rotate&amp;nbsp;&lt;div&gt;will adjust the highlighted config value&lt;/div&gt;" style="shape=step;perimeter=stepPerimeter;whiteSpace=wrap;html=1;fixedSize=1;flipH=1;" vertex="1" parent="jLhTPvRtANNzipeCa4i7-1">
          <mxGeometry x="880" y="480" width="270" height="60" as="geometry" />
        </mxCell>
        <mxCell id="jLhTPvRtANNzipeCa4i7-30" value="control bypassed until connected" style="shape=step;perimeter=stepPerimeter;whiteSpace=wrap;html=1;fixedSize=1;flipH=1;" vertex="1" parent="jLhTPvRtANNzipeCa4i7-1">
          <mxGeometry x="590" y="320" width="220" height="60" as="geometry" />
        </mxCell>
        <mxCell id="jLhTPvRtANNzipeCa4i7-31" value="&amp;lt;&amp;nbsp; &amp;nbsp;PU1 Channel&amp;nbsp; &amp;nbsp;&amp;gt;" style="text;html=1;align=center;verticalAlign=middle;whiteSpace=wrap;rounded=0;" vertex="1" parent="jLhTPvRtANNzipeCa4i7-1">
          <mxGeometry x="340" y="800" width="210" height="30" as="geometry" />
        </mxCell>
        <mxCell id="jLhTPvRtANNzipeCa4i7-32" value="- [01] +" style="text;html=1;align=center;verticalAlign=middle;whiteSpace=wrap;rounded=0;fontSize=27;" vertex="1" parent="jLhTPvRtANNzipeCa4i7-1">
          <mxGeometry x="340" y="820" width="210" height="40" as="geometry" />
        </mxCell>
        <mxCell id="jLhTPvRtANNzipeCa4i7-33" value="" style="rounded=0;whiteSpace=wrap;html=1;" vertex="1" parent="jLhTPvRtANNzipeCa4i7-1">
          <mxGeometry x="580" y="800" width="230" height="60" as="geometry" />
        </mxCell>
        <mxCell id="jLhTPvRtANNzipeCa4i7-34" value="&amp;lt;&amp;nbsp; &amp;nbsp;PU2 Channel&amp;nbsp; &amp;nbsp;&amp;gt;" style="text;html=1;align=center;verticalAlign=middle;whiteSpace=wrap;rounded=0;" vertex="1" parent="jLhTPvRtANNzipeCa4i7-1">
          <mxGeometry x="590" y="800" width="210" height="30" as="geometry" />
        </mxCell>
        <mxCell id="jLhTPvRtANNzipeCa4i7-35" value="- [02] +" style="text;html=1;align=center;verticalAlign=middle;whiteSpace=wrap;rounded=0;fontSize=27;" vertex="1" parent="jLhTPvRtANNzipeCa4i7-1">
          <mxGeometry x="590" y="820" width="210" height="40" as="geometry" />
        </mxCell>
        <mxCell id="jLhTPvRtANNzipeCa4i7-36" value="" style="rounded=0;whiteSpace=wrap;html=1;" vertex="1" parent="jLhTPvRtANNzipeCa4i7-1">
          <mxGeometry x="90" y="800" width="230" height="60" as="geometry" />
        </mxCell>
        <mxCell id="jLhTPvRtANNzipeCa4i7-37" value="&amp;lt;&amp;nbsp; &amp;nbsp;NOI Channel&amp;nbsp; &amp;nbsp;&amp;gt;" style="text;html=1;align=center;verticalAlign=middle;whiteSpace=wrap;rounded=0;" vertex="1" parent="jLhTPvRtANNzipeCa4i7-1">
          <mxGeometry x="100" y="800" width="210" height="30" as="geometry" />
        </mxCell>
        <mxCell id="jLhTPvRtANNzipeCa4i7-38" value="- [04] +" style="text;html=1;align=center;verticalAlign=middle;whiteSpace=wrap;rounded=0;fontSize=27;" vertex="1" parent="jLhTPvRtANNzipeCa4i7-1">
          <mxGeometry x="100" y="820" width="210" height="40" as="geometry" />
        </mxCell>
        <mxCell id="jLhTPvRtANNzipeCa4i7-39" value="" style="rounded=0;whiteSpace=wrap;html=1;" vertex="1" parent="jLhTPvRtANNzipeCa4i7-1">
          <mxGeometry x="820" y="800" width="230" height="60" as="geometry" />
        </mxCell>
        <mxCell id="jLhTPvRtANNzipeCa4i7-40" value="&amp;lt;&amp;nbsp; &amp;nbsp;WAV Channel&amp;nbsp; &amp;nbsp;&amp;gt;" style="text;html=1;align=center;verticalAlign=middle;whiteSpace=wrap;rounded=0;" vertex="1" parent="jLhTPvRtANNzipeCa4i7-1">
          <mxGeometry x="830" y="800" width="210" height="30" as="geometry" />
        </mxCell>
        <mxCell id="jLhTPvRtANNzipeCa4i7-41" value="- [10] +" style="text;html=1;align=center;verticalAlign=middle;whiteSpace=wrap;rounded=0;fontSize=27;" vertex="1" parent="jLhTPvRtANNzipeCa4i7-1">
          <mxGeometry x="830" y="820" width="210" height="40" as="geometry" />
        </mxCell>
        <mxCell id="jLhTPvRtANNzipeCa4i7-42" value="" style="endArrow=classic;html=1;rounded=0;" edge="1" parent="jLhTPvRtANNzipeCa4i7-1">
          <mxGeometry width="50" height="50" relative="1" as="geometry">
            <mxPoint x="440" y="710" as="sourcePoint" />
            <mxPoint x="440" y="790" as="targetPoint" />
          </mxGeometry>
        </mxCell>
        <mxCell id="jLhTPvRtANNzipeCa4i7-43" value="rotate rotary will navigate menu" style="shape=step;perimeter=stepPerimeter;whiteSpace=wrap;html=1;fixedSize=1;flipH=1;" vertex="1" parent="jLhTPvRtANNzipeCa4i7-1">
          <mxGeometry x="1061" y="800" width="270" height="60" as="geometry" />
        </mxCell>
        <mxCell id="jLhTPvRtANNzipeCa4i7-51" value="" style="rounded=0;whiteSpace=wrap;html=1;" vertex="1" parent="jLhTPvRtANNzipeCa4i7-1">
          <mxGeometry x="240" y="1169" width="230" height="60" as="geometry" />
        </mxCell>
        <mxCell id="jLhTPvRtANNzipeCa4i7-52" value="&amp;lt;&amp;nbsp; Reader&amp;nbsp; &amp;gt;" style="text;html=1;align=center;verticalAlign=middle;whiteSpace=wrap;rounded=0;fontSize=21;" vertex="1" parent="jLhTPvRtANNzipeCa4i7-1">
          <mxGeometry x="250" y="1169" width="210" height="60" as="geometry" />
        </mxCell>
        <mxCell id="jLhTPvRtANNzipeCa4i7-53" value="click rotary enter the menu mode" style="shape=step;perimeter=stepPerimeter;whiteSpace=wrap;html=1;fixedSize=1;flipH=1;" vertex="1" parent="jLhTPvRtANNzipeCa4i7-1">
          <mxGeometry x="370" y="1250" width="270" height="60" as="geometry" />
        </mxCell>
        <mxCell id="jLhTPvRtANNzipeCa4i7-54" value="" style="endArrow=classic;html=1;rounded=0;" edge="1" parent="jLhTPvRtANNzipeCa4i7-1">
          <mxGeometry width="50" height="50" relative="1" as="geometry">
            <mxPoint x="360" y="1240" as="sourcePoint" />
            <mxPoint x="360" y="1320" as="targetPoint" />
          </mxGeometry>
        </mxCell>
        <mxCell id="jLhTPvRtANNzipeCa4i7-55" value="" style="rounded=0;whiteSpace=wrap;html=1;" vertex="1" parent="jLhTPvRtANNzipeCa4i7-1">
          <mxGeometry x="240" y="1340" width="230" height="60" as="geometry" />
        </mxCell>
        <mxCell id="jLhTPvRtANNzipeCa4i7-56" value="&amp;lt;&amp;nbsp; &amp;nbsp;Control Change&amp;nbsp; &amp;nbsp;&amp;gt;" style="text;html=1;align=center;verticalAlign=middle;whiteSpace=wrap;rounded=0;" vertex="1" parent="jLhTPvRtANNzipeCa4i7-1">
          <mxGeometry x="250" y="1340" width="210" height="30" as="geometry" />
        </mxCell>
        <mxCell id="jLhTPvRtANNzipeCa4i7-57" value="&amp;lt; ON &amp;gt;" style="text;html=1;align=center;verticalAlign=middle;whiteSpace=wrap;rounded=0;fontSize=27;" vertex="1" parent="jLhTPvRtANNzipeCa4i7-1">
          <mxGeometry x="250" y="1360" width="210" height="40" as="geometry" />
        </mxCell>
        <mxCell id="jLhTPvRtANNzipeCa4i7-58" value="" style="rounded=0;whiteSpace=wrap;html=1;" vertex="1" parent="jLhTPvRtANNzipeCa4i7-1">
          <mxGeometry x="490" y="1340" width="230" height="60" as="geometry" />
        </mxCell>
        <mxCell id="jLhTPvRtANNzipeCa4i7-59" value="&amp;lt;&amp;nbsp; &amp;nbsp;Program Change&amp;nbsp; &amp;nbsp;&amp;gt;" style="text;html=1;align=center;verticalAlign=middle;whiteSpace=wrap;rounded=0;" vertex="1" parent="jLhTPvRtANNzipeCa4i7-1">
          <mxGeometry x="500" y="1340" width="210" height="30" as="geometry" />
        </mxCell>
        <mxCell id="jLhTPvRtANNzipeCa4i7-60" value="&amp;lt; OFF &amp;gt;" style="text;html=1;align=center;verticalAlign=middle;whiteSpace=wrap;rounded=0;fontSize=27;" vertex="1" parent="jLhTPvRtANNzipeCa4i7-1">
          <mxGeometry x="500" y="1360" width="210" height="40" as="geometry" />
        </mxCell>
        <mxCell id="jLhTPvRtANNzipeCa4i7-61" value="" style="rounded=0;whiteSpace=wrap;html=1;" vertex="1" parent="jLhTPvRtANNzipeCa4i7-1">
          <mxGeometry x="971" y="1340" width="230" height="60" as="geometry" />
        </mxCell>
        <mxCell id="jLhTPvRtANNzipeCa4i7-62" value="&amp;lt;&amp;nbsp; &amp;nbsp;Clock&amp;nbsp; &amp;nbsp;&amp;gt;" style="text;html=1;align=center;verticalAlign=middle;whiteSpace=wrap;rounded=0;" vertex="1" parent="jLhTPvRtANNzipeCa4i7-1">
          <mxGeometry x="981" y="1340" width="210" height="30" as="geometry" />
        </mxCell>
        <mxCell id="jLhTPvRtANNzipeCa4i7-63" value="&amp;lt; ON &amp;gt;" style="text;html=1;align=center;verticalAlign=middle;whiteSpace=wrap;rounded=0;fontSize=27;" vertex="1" parent="jLhTPvRtANNzipeCa4i7-1">
          <mxGeometry x="981" y="1360" width="210" height="40" as="geometry" />
        </mxCell>
        <mxCell id="jLhTPvRtANNzipeCa4i7-64" value="" style="rounded=0;whiteSpace=wrap;html=1;" vertex="1" parent="jLhTPvRtANNzipeCa4i7-1">
          <mxGeometry x="730" y="1340" width="230" height="60" as="geometry" />
        </mxCell>
        <mxCell id="jLhTPvRtANNzipeCa4i7-65" value="&amp;lt;&amp;nbsp; &amp;nbsp;Realtime&amp;nbsp; &amp;nbsp;&amp;gt;" style="text;html=1;align=center;verticalAlign=middle;whiteSpace=wrap;rounded=0;" vertex="1" parent="jLhTPvRtANNzipeCa4i7-1">
          <mxGeometry x="740" y="1340" width="210" height="30" as="geometry" />
        </mxCell>
        <mxCell id="jLhTPvRtANNzipeCa4i7-66" value="&amp;lt; ON &amp;gt;" style="text;html=1;align=center;verticalAlign=middle;whiteSpace=wrap;rounded=0;fontSize=27;" vertex="1" parent="jLhTPvRtANNzipeCa4i7-1">
          <mxGeometry x="740" y="1360" width="210" height="40" as="geometry" />
        </mxCell>
        <mxCell id="jLhTPvRtANNzipeCa4i7-67" value="" style="rounded=0;whiteSpace=wrap;html=1;" vertex="1" parent="jLhTPvRtANNzipeCa4i7-1">
          <mxGeometry x="1210" y="1340" width="230" height="60" as="geometry" />
        </mxCell>
        <mxCell id="jLhTPvRtANNzipeCa4i7-68" value="&amp;lt;&amp;nbsp; &amp;nbsp;Exp. Correction&amp;nbsp; &amp;nbsp;&amp;gt;" style="text;html=1;align=center;verticalAlign=middle;whiteSpace=wrap;rounded=0;" vertex="1" parent="jLhTPvRtANNzipeCa4i7-1">
          <mxGeometry x="1220" y="1340" width="210" height="30" as="geometry" />
        </mxCell>
        <mxCell id="jLhTPvRtANNzipeCa4i7-69" value="&amp;lt; ON &amp;gt;" style="text;html=1;align=center;verticalAlign=middle;whiteSpace=wrap;rounded=0;fontSize=27;" vertex="1" parent="jLhTPvRtANNzipeCa4i7-1">
          <mxGeometry x="1220" y="1360" width="210" height="40" as="geometry" />
        </mxCell>
        <mxCell id="jLhTPvRtANNzipeCa4i7-70" value="rotate rotary will navigate menu" style="shape=step;perimeter=stepPerimeter;whiteSpace=wrap;html=1;fixedSize=1;flipH=1;" vertex="1" parent="jLhTPvRtANNzipeCa4i7-1">
          <mxGeometry x="1201" y="1229" width="270" height="60" as="geometry" />
        </mxCell>
        <mxCell id="jLhTPvRtANNzipeCa4i7-71" value="" style="rounded=0;whiteSpace=wrap;html=1;" vertex="1" parent="jLhTPvRtANNzipeCa4i7-1">
          <mxGeometry x="250" y="1500" width="230" height="60" as="geometry" />
        </mxCell>
        <mxCell id="jLhTPvRtANNzipeCa4i7-72" value="&amp;lt;&amp;nbsp; &amp;nbsp;Control Change&amp;nbsp; &amp;nbsp;&amp;gt;" style="text;html=1;align=center;verticalAlign=middle;whiteSpace=wrap;rounded=0;" vertex="1" parent="jLhTPvRtANNzipeCa4i7-1">
          <mxGeometry x="260" y="1500" width="210" height="30" as="geometry" />
        </mxCell>
        <mxCell id="jLhTPvRtANNzipeCa4i7-73" value="&amp;lt; OFF &amp;gt;" style="text;html=1;align=center;verticalAlign=middle;whiteSpace=wrap;rounded=0;fontSize=27;" vertex="1" parent="jLhTPvRtANNzipeCa4i7-1">
          <mxGeometry x="260" y="1520" width="210" height="40" as="geometry" />
        </mxCell>
        <mxCell id="jLhTPvRtANNzipeCa4i7-74" value="" style="endArrow=classic;html=1;rounded=0;" edge="1" parent="jLhTPvRtANNzipeCa4i7-1">
          <mxGeometry width="50" height="50" relative="1" as="geometry">
            <mxPoint x="364.5" y="1410" as="sourcePoint" />
            <mxPoint x="364.5" y="1490" as="targetPoint" />
          </mxGeometry>
        </mxCell>
        <mxCell id="jLhTPvRtANNzipeCa4i7-75" value="click shift" style="shape=step;perimeter=stepPerimeter;whiteSpace=wrap;html=1;fixedSize=1;" vertex="1" parent="jLhTPvRtANNzipeCa4i7-1">
          <mxGeometry x="110" y="1420" width="220" height="60" as="geometry" />
        </mxCell>
        <mxCell id="jLhTPvRtANNzipeCa4i7-76" value="rotate rotary will update value" style="shape=step;perimeter=stepPerimeter;whiteSpace=wrap;html=1;fixedSize=1;flipH=1;" vertex="1" parent="jLhTPvRtANNzipeCa4i7-1">
          <mxGeometry x="390" y="1420" width="270" height="60" as="geometry" />
        </mxCell>
        <mxCell id="jLhTPvRtANNzipeCa4i7-77" value="click rotary will back to previous menu" style="shape=step;perimeter=stepPerimeter;whiteSpace=wrap;html=1;fixedSize=1;flipH=1;direction=north;" vertex="1" parent="jLhTPvRtANNzipeCa4i7-1">
          <mxGeometry x="10" y="1270" width="60" height="270" as="geometry" />
        </mxCell>
        <mxCell id="jLhTPvRtANNzipeCa4i7-78" value="" style="endArrow=classic;html=1;rounded=0;" edge="1" parent="jLhTPvRtANNzipeCa4i7-1">
          <mxGeometry width="50" height="50" relative="1" as="geometry">
            <mxPoint x="444.5" y="550" as="sourcePoint" />
            <mxPoint x="444.5" y="630" as="targetPoint" />
          </mxGeometry>
        </mxCell>
        <mxCell id="jLhTPvRtANNzipeCa4i7-79" value="" style="endArrow=classic;html=1;rounded=0;" edge="1" parent="jLhTPvRtANNzipeCa4i7-1">
          <mxGeometry width="50" height="50" relative="1" as="geometry">
            <mxPoint x="440" y="390" as="sourcePoint" />
            <mxPoint x="440" y="470" as="targetPoint" />
          </mxGeometry>
        </mxCell>
        <mxCell id="jLhTPvRtANNzipeCa4i7-80" value="" style="endArrow=classic;html=1;rounded=0;" edge="1" parent="jLhTPvRtANNzipeCa4i7-1">
          <mxGeometry width="50" height="50" relative="1" as="geometry">
            <mxPoint x="480" y="230" as="sourcePoint" />
            <mxPoint x="480" y="310" as="targetPoint" />
          </mxGeometry>
        </mxCell>
        <mxCell id="jLhTPvRtANNzipeCa4i7-81" value="" style="rounded=0;whiteSpace=wrap;html=1;" vertex="1" parent="jLhTPvRtANNzipeCa4i7-1">
          <mxGeometry x="1450" y="1340" width="230" height="60" as="geometry" />
        </mxCell>
        <mxCell id="jLhTPvRtANNzipeCa4i7-82" value="&amp;lt;&amp;nbsp; &amp;nbsp;Byte Delay&amp;nbsp; us&amp;nbsp; &amp;gt;" style="text;html=1;align=center;verticalAlign=middle;whiteSpace=wrap;rounded=0;" vertex="1" parent="jLhTPvRtANNzipeCa4i7-1">
          <mxGeometry x="1460" y="1340" width="210" height="30" as="geometry" />
        </mxCell>
        <mxCell id="jLhTPvRtANNzipeCa4i7-83" value="- 3600 +" style="text;html=1;align=center;verticalAlign=middle;whiteSpace=wrap;rounded=0;fontSize=27;" vertex="1" parent="jLhTPvRtANNzipeCa4i7-1">
          <mxGeometry x="1460" y="1360" width="210" height="40" as="geometry" />
        </mxCell>
        <mxCell id="yw6o01l--fo5ON37wxSx-0" value="click Shift + click Rotary&amp;nbsp;&lt;div&gt;solo/un-solo channel | mute/un-mute velocity&lt;/div&gt;" style="shape=step;perimeter=stepPerimeter;whiteSpace=wrap;html=1;fixedSize=1;flipH=1;" vertex="1" parent="jLhTPvRtANNzipeCa4i7-1">
          <mxGeometry x="1150" y="480" width="270" height="60" as="geometry" />
        </mxCell>
        <mxCell id="yw6o01l--fo5ON37wxSx-1" value="click rotary" style="shape=step;perimeter=stepPerimeter;whiteSpace=wrap;html=1;fixedSize=1;" vertex="1" parent="jLhTPvRtANNzipeCa4i7-1">
          <mxGeometry x="200" y="730" width="220" height="40" as="geometry" />
        </mxCell>
        <mxCell id="yw6o01l--fo5ON37wxSx-6" value="click Shift + Rotate&amp;nbsp;&lt;div&gt;will adjust the config value&lt;/div&gt;" style="shape=step;perimeter=stepPerimeter;whiteSpace=wrap;html=1;fixedSize=1;flipH=1;" vertex="1" parent="jLhTPvRtANNzipeCa4i7-1">
          <mxGeometry x="1320" y="800" width="270" height="60" as="geometry" />
        </mxCell>
        <mxCell id="yw6o01l--fo5ON37wxSx-7" value="" style="edgeStyle=orthogonalEdgeStyle;rounded=0;orthogonalLoop=1;jettySize=auto;html=1;" edge="1" parent="jLhTPvRtANNzipeCa4i7-1">
          <mxGeometry relative="1" as="geometry">
            <mxPoint x="480" y="780" as="sourcePoint" />
            <mxPoint x="480" y="720" as="targetPoint" />
          </mxGeometry>
        </mxCell>
        <mxCell id="yw6o01l--fo5ON37wxSx-8" value="click shift + click rotary&lt;div&gt;will save value and back to menu&lt;/div&gt;" style="shape=step;perimeter=stepPerimeter;whiteSpace=wrap;html=1;fixedSize=1;flipH=1;" vertex="1" parent="jLhTPvRtANNzipeCa4i7-1">
          <mxGeometry x="494" y="720" width="270" height="60" as="geometry" />
        </mxCell>
      </root>
    </mxGraphModel>
  </diagram>
  <diagram id="cKASlxFHW7FNhQI-cWyw" name="main display">
    <mxGraphModel dx="1314" dy="802" grid="1" gridSize="10" guides="1" tooltips="1" connect="1" arrows="1" fold="1" page="1" pageScale="1" pageWidth="827" pageHeight="1169" math="0" shadow="0">
      <root>
        <mxCell id="0" />
        <mxCell id="1" parent="0" />
        <mxCell id="cm7DsMpakoswa9F7mLSm-1" value="" style="rounded=0;whiteSpace=wrap;html=1;movable=0;resizable=0;rotatable=0;deletable=0;editable=0;locked=1;connectable=0;" vertex="1" parent="1">
          <mxGeometry x="80" y="160" width="680" height="250" as="geometry" />
        </mxCell>
      </root>
    </mxGraphModel>
  </diagram>
</mxfile>
